Sprint_08100001_forces_filt999Hz.mot
version=1
nRows=52
nColumns=19
inDegrees=yes
endheader
time	R_ground_force_vx	R_ground_force_vy	R_ground_force_vz	R_ground_force_px	R_ground_force_py	R_ground_force_pz	R_ground_torque_x	R_ground_torque_y	R_ground_torque_z	L_ground_force_vx	L_ground_force_vy	L_ground_force_vz	L_ground_force_px	L_ground_force_py	L_ground_force_pz	L_ground_torque_x	L_ground_torque_y	L_ground_torque_z	
0.000000	  0.000000	  0.000000	  0.000000	  0.270459	  0.000000	 -0.246355	  0.000000	  0.000000	  0.000000	  0.000000	  0.000000	  0.000000	  1.245356	  0.000000	 -0.405437	  0.000000	  0.000000	  0.000000
0.000500	  0.000000	  0.000000	  0.000000	  0.272823	 -0.000000	 -0.246224	  0.000000	  0.000000	  0.000000	  0.000000	  0.000000	  0.000000	  1.242251	 -0.000000	 -0.404746	  0.000000	  0.000000	  0.000000
0.001000	  0.000000	  0.000000	  0.000000	  0.275187	 -0.000000	 -0.246094	  0.000000	  0.000000	  0.000000	  0.000000	  0.000000	  0.000000	  1.239145	 -0.000000	 -0.404055	  0.000000	  0.000000	  0.000000
0.001500	  0.000000	  0.000000	  0.000000	  0.277550	 -0.000000	 -0.245963	  0.000000	  0.000000	  0.000000	  0.000000	  0.000000	  0.000000	  1.236040	 -0.000000	 -0.403365	  0.000000	  0.000000	  0.000000
0.002000	  0.000000	  0.000000	  0.000000	  0.279914	 -0.000000	 -0.245833	  0.000000	  0.000000	  0.000000	  0.000000	  0.000000	  0.000000	  1.232935	 -0.000000	 -0.402674	  0.000000	  0.000000	  0.000000
0.002500	  0.000000	  0.000000	  0.000000	  0.282278	  0.000000	 -0.245702	  0.000000	  0.000000	  0.000000	  0.000000	  0.000000	  0.000000	  1.229829	  0.000000	 -0.401983	  0.000000	  0.000000	  0.000000
0.003000	  0.000000	  0.000000	  0.000000	  0.284642	  0.000000	 -0.245572	  0.000000	  0.000000	  0.000000	  0.000000	  0.000000	  0.000000	  1.226724	  0.000000	 -0.401293	  0.000000	  0.000000	  0.000000
0.003500	  0.000000	  0.000000	  0.000000	  0.287006	  0.000000	 -0.245441	  0.000000	  0.000000	  0.000000	  0.000000	  0.000000	  0.000000	  1.223619	  0.000000	 -0.400602	  0.000000	  0.000000	  0.000000
0.004000	  0.000000	  0.000000	  0.000000	  0.289370	  0.000000	 -0.245311	  0.000000	  0.000000	  0.000000	  0.000000	  0.000000	  0.000000	  1.220513	  0.000000	 -0.399911	  0.000000	  0.000000	  0.000000
0.004500	  0.000000	  0.000000	  0.000000	  0.291734	  0.000000	 -0.245180	  0.000000	  0.000000	  0.000000	  0.000000	  0.000000	  0.000000	  1.217408	  0.000000	 -0.399221	  0.000000	  0.000000	  0.000000
0.005000	  0.000000	  0.000000	  0.000000	  0.294098	  0.000000	 -0.245050	  0.000000	  0.000000	  0.000000	  0.000000	  0.000000	  0.000000	  1.214303	  0.000000	 -0.398530	  0.000000	  0.000000	  0.000000
0.005500	  0.000000	  0.000000	  0.000000	  0.296495	  0.000000	 -0.244976	  0.000000	  0.000000	  0.000000	  0.000000	  0.000000	  0.000000	  1.210940	  0.000000	 -0.397403	  0.000000	  0.000000	  0.000000
0.006000	  0.000000	  0.000000	  0.000000	  0.298893	  0.000000	 -0.244903	  0.000000	  0.000000	  0.000000	  0.000000	  0.000000	  0.000000	  1.207576	  0.000000	 -0.396276	  0.000000	  0.000000	  0.000000
0.006500	  0.000000	  0.000000	  0.000000	  0.301291	  0.000000	 -0.244830	  0.000000	  0.000000	  0.000000	  0.000000	  0.000000	  0.000000	  1.204213	  0.000000	 -0.395149	  0.000000	  0.000000	  0.000000
0.007000	  0.000000	  0.000000	  0.000000	  0.303689	  0.000000	 -0.244757	  0.000000	  0.000000	  0.000000	  0.000000	  0.000000	  0.000000	  1.187861	 -0.000000	 -0.407880	  0.000000	  0.000000	  0.000000
0.007500	  0.000000	  0.000000	  0.000000	  0.306087	  0.000000	 -0.244684	  0.000000	  0.000000	  0.000000	  0.000000	  0.000000	  0.000000	  1.171508	 -0.000000	 -0.420610	  0.000000	  0.000000	  0.000000
0.008000	  0.000000	  0.000000	  0.000000	  0.308485	  0.000000	 -0.244610	  0.000000	  0.000000	  0.000000	  0.000000	  0.000000	  0.000000	  1.155156	 -0.000000	 -0.433340	  0.000000	  0.000000	  0.000000
0.008500	  0.000000	  0.000000	  0.000000	  0.310882	  0.000000	 -0.244537	  0.000000	  0.000000	  0.000000	  0.000000	  0.000000	  0.000000	  1.138803	 -0.000000	 -0.446071	  0.000000	  0.000000	  0.000000
0.009000	  0.000000	  0.000000	  0.000000	  0.313280	  0.000000	 -0.244464	  0.000000	  0.000000	  0.000000	  0.000000	  0.000000	  0.000000	  1.122451	  0.000000	 -0.458801	  0.000000	  0.000000	  0.000000
0.009500	  0.000000	  0.000000	  0.000000	  0.315678	  0.000000	 -0.244391	  0.000000	  0.000000	  0.000000	  0.000000	  0.000000	  0.000000	  1.106098	  0.000000	 -0.471531	  0.000000	  0.000000	  0.000000
0.010000	  0.000000	  0.000000	  0.000000	  0.318076	  0.000000	 -0.244317	  0.000000	  0.000000	  0.000000	  0.000000	  0.000000	  0.000000	  1.089746	  0.000000	 -0.484262	  0.000000	  0.000000	  0.000000
0.010500	  0.000000	  0.000000	  0.000000	  0.320546	  0.000000	 -0.244262	  0.000000	  0.000000	  0.000000	 -7.996583	347.215430	-13.342598	  1.073393	  0.000000	 -0.496992	  0.000000	 18.594823	  0.000000
0.011000	  0.000000	  0.000000	  0.000000	  0.323015	  0.000000	 -0.244207	  0.000000	  0.000000	  0.000000	 -8.330269	348.584586	-13.589163	  1.057041	  0.000000	 -0.509722	  0.000000	 17.905994	  0.000000
0.011500	  0.000000	  0.000000	  0.000000	  0.325485	  0.000000	 -0.244151	  0.000000	  0.000000	  0.000000	-49.653183	521.472341	-65.069897	  1.093778	  0.000000	 -0.517319	  0.000000	  6.090356	  0.000000
0.012000	  0.000000	  0.000000	  0.000000	  0.327955	  0.000000	 -0.244096	  0.000000	  0.000000	  0.000000	-50.139244	524.516867	-65.469041	  1.091844	  0.000000	 -0.514811	  0.000000	  5.140155	  0.000000
0.012500	  0.000000	  0.000000	  0.000000	  0.330424	  0.000000	 -0.244041	  0.000000	  0.000000	  0.000000	-106.110810	762.562782	-113.287676	  1.058207	  0.000000	 -0.503279	  0.000000	 -6.737593	  0.000000
0.013000	  0.000000	  0.000000	  0.000000	  0.332894	  0.000000	 -0.243985	  0.000000	  0.000000	  0.000000	-106.520362	764.536027	-113.610515	  1.058340	  0.000000	 -0.502078	  0.000000	 -7.626058	  0.000000
0.013500	  0.000000	  0.000000	  0.000000	  0.335364	  0.000000	 -0.243930	  0.000000	  0.000000	  0.000000	-168.443072	999.075621	-145.025962	  1.034470	  0.000000	 -0.485550	  0.000000	-16.680934	  0.000000
0.014000	  0.000000	  0.000000	  0.000000	  0.337834	  0.000000	 -0.243875	  0.000000	  0.000000	  0.000000	-168.852405	1003.334450	-145.272497	  1.032379	  0.000000	 -0.483683	  0.000000	-16.664283	  0.000000
0.014500	  0.000000	  0.000000	  0.000000	  0.340303	  0.000000	 -0.243819	  0.000000	  0.000000	  0.000000	-243.516424	1162.346308	-150.824307	  1.040707	  0.000000	 -0.470015	  0.000000	-24.611544	  0.000000
0.015000	  0.000000	  0.000000	  0.000000	  0.342773	  0.000000	 -0.243764	  0.000000	  0.000000	  0.000000	-244.001830	1163.855250	-150.918243	  1.041024	  0.000000	 -0.469572	  0.000000	-24.903491	  0.000000
0.015500	  0.000000	  0.000000	  0.000000	  0.345296	  0.000000	 -0.243625	  0.000000	  0.000000	  0.000000	-341.859432	1253.748132	-109.472995	  1.055386	  0.000000	 -0.454396	  0.000000	-39.386786	  0.000000
0.016000	  0.000000	  0.000000	  0.000000	  0.347818	  0.000000	 -0.243486	  0.000000	  0.000000	  0.000000	-342.649789	1255.864054	-109.185450	  1.054762	  0.000000	 -0.453928	  0.000000	-39.179429	  0.000000
0.016500	  0.000000	  0.000000	  0.000000	  0.350341	  0.000000	 -0.243347	  0.000000	  0.000000	  0.000000	-460.878099	1340.267178	-28.296243	  1.036259	  0.000000	 -0.433397	  0.000000	-49.944735	  0.000000
0.017000	  0.000000	  0.000000	  0.000000	  0.352863	  0.000000	 -0.243209	  0.000000	  0.000000	  0.000000	-461.668231	1341.464131	-27.779804	  1.036139	  0.000000	 -0.433288	  0.000000	-49.358524	  0.000000
0.017500	  0.000000	  0.000000	  0.000000	  0.355386	  0.000000	 -0.243070	  0.000000	  0.000000	  0.000000	-580.659707	1440.519168	 55.855973	  0.984311	  0.000000	 -0.412134	  0.000000	-38.900352	  0.000000
0.018000	  0.000000	  0.000000	  0.000000	  0.357909	  0.000000	 -0.242931	  0.000000	  0.000000	  0.000000	-581.678492	1441.865201	 56.601306	  0.984222	  0.000000	 -0.411964	  0.000000	-38.397029	  0.000000
0.018500	  0.000000	  0.000000	  0.000000	  0.360431	  0.000000	 -0.242792	  0.000000	  0.000000	  0.000000	-669.160798	1513.305371	119.790293	  0.925273	  0.000000	 -0.396345	  0.000000	 -6.508893	  0.000000
0.019000	  0.000000	  0.000000	  0.000000	  0.362954	  0.000000	 -0.242654	  0.000000	  0.000000	  0.000000	-669.721590	1514.800416	120.077874	  0.924825	  0.000000	 -0.396157	  0.000000	 -6.358353	  0.000000
0.019500	  0.000000	  0.000000	  0.000000	  0.365476	  0.000000	 -0.242515	  0.000000	  0.000000	  0.000000	-717.454981	1525.056452	174.035282	  0.876763	  0.000000	 -0.385528	  0.000000	 31.672504	  0.000000
0.020000	  0.000000	  0.000000	  0.000000	  0.367999	  0.000000	 -0.242376	  0.000000	  0.000000	  0.000000	-717.862954	1526.242678	174.551757	  0.876300	  0.000000	 -0.385508	  0.000000	 31.935642	  0.000000
0.020500	  0.000000	  0.000000	  0.000000	  0.370551	  0.000000	 -0.242196	  0.000000	  0.000000	  0.000000	-719.743915	1497.439889	238.045896	  0.869049	  0.000000	 -0.376620	  0.000000	 64.326590	  0.000000
0.021000	  0.000000	  0.000000	  0.000000	  0.373102	  0.000000	 -0.242017	  0.000000	  0.000000	  0.000000	-719.693893	1498.317232	238.638678	  0.868923	  0.000000	 -0.376765	  0.000000	 65.126740	  0.000000
0.021500	  0.000000	  0.000000	  0.000000	  0.375654	  0.000000	 -0.241837	  0.000000	  0.000000	  0.000000	-658.479993	1456.700801	289.239126	  0.915058	  0.000000	 -0.375128	  0.000000	 95.397955	  0.000000
0.022000	  0.000000	  0.000000	  0.000000	  0.378205	  0.000000	 -0.241658	  0.000000	  0.000000	  0.000000	-657.895682	1457.421782	289.755628	  0.915249	  0.000000	 -0.375191	  0.000000	 96.320734	  0.000000
0.022500	  0.000000	  0.000000	  0.000000	  0.380757	  0.000000	 -0.241478	  0.000000	  0.000000	  0.000000	-531.221808	1433.509353	289.239120	  0.976783	  0.000000	 -0.391203	  0.000000	113.753645	  0.000000
0.023000	  0.000000	  0.000000	  0.000000	  0.383308	  0.000000	 -0.241298	  0.000000	  0.000000	  0.000000	-530.255796	1434.531671	289.145283	  0.976824	  0.000000	 -0.391176	  0.000000	114.344431	  0.000000
0.023500	  0.000000	  0.000000	  0.000000	  0.385860	  0.000000	 -0.241119	  0.000000	  0.000000	  0.000000	-349.260863	1467.538396	240.639869	  1.028664	  0.000000	 -0.418690	  0.000000	118.866501	  0.000000
0.024000	  0.000000	  0.000000	  0.000000	  0.388411	  0.000000	 -0.240939	  0.000000	  0.000000	  0.000000	-347.989446	1469.167164	240.240872	  1.028574	  0.000000	 -0.418347	  0.000000	119.303753	  0.000000
0.024500	  0.000000	  0.000000	  0.000000	  0.390963	  0.000000	 -0.240760	  0.000000	  0.000000	  0.000000	-140.368155	1534.526455	182.198699	  1.077389	  0.000000	 -0.440983	  0.000000	132.001361	  0.000000
0.025000	  0.000000	  0.000000	  0.000000	  0.393514	  0.000000	 -0.240580	  0.000000	  0.000000	  0.000000	-138.715040	1535.846081	181.723424	  1.077705	  0.000000	 -0.440759	  0.000000	132.402225	  0.000000
0.025500	  0.000000	  0.000000	  0.000000	  0.396074	  0.000000	 -0.240452	  0.000000	  0.000000	  0.000000	 48.993303	1582.135883	164.727377	  1.133466	  0.000000	 -0.451709	  0.000000	150.415816	  0.000000
